<?xml version="1.0" encoding="UTF-8" standalone="no"?>
<!-- Created with Inkscape (http://www.inkscape.org/) -->

<svg
   width="250.78947mm"
   height="316.20688mm"
   viewBox="0 0 250.78947 316.20688"
   version="1.1"
   id="svg1"
   xml:space="preserve"
   sodipodi:docname="tytlogo2026.svg"
   inkscape:version="1.4.2 (f4327f4, 2025-05-13)"
   inkscape:export-batch-path="TYT"
   inkscape:export-batch-name=""
   xmlns:inkscape="http://www.inkscape.org/namespaces/inkscape"
   xmlns:sodipodi="http://sodipodi.sourceforge.net/DTD/sodipodi-0.dtd"
   xmlns="http://www.w3.org/2000/svg"
   xmlns:svg="http://www.w3.org/2000/svg"><sodipodi:namedview
     id="namedview1"
     pagecolor="#505050"
     bordercolor="#eeeeee"
     borderopacity="1"
     inkscape:showpageshadow="0"
     inkscape:pageopacity="0"
     inkscape:pagecheckerboard="0"
     inkscape:deskcolor="#505050"
     inkscape:document-units="mm"
     showgrid="false"
     inkscape:zoom="0.33762509"
     inkscape:cx="-2573.8609"
     inkscape:cy="445.76071"
     inkscape:window-width="1920"
     inkscape:window-height="1009"
     inkscape:window-x="-8"
     inkscape:window-y="-8"
     inkscape:window-maximized="1"
     inkscape:current-layer="svg1" /><defs
     id="defs1" /><path
     style="fill:#ffffff;stroke-width:0.454689;stroke-linejoin:bevel;stroke-miterlimit:20.9"
     d="m 40.01553,69.205908 c 7.78907,-10.36058 18.85775,-18.93228 33.20603,-25.71511 12.78301,3.20508 23.03179,-4.77033 30.74632,-23.926225 -18.6714,0.0745 -29.44193,6.85736 -32.31159,20.348475 l -14.08738,8.16175 1.56527,-5.70204 C 69.97923,34.620958 74.116,25.080273 71.54448,13.750723 59.09689,21.763403 53.8048,31.415886 55.66822,42.708178 l -3.80138,9.61521 -5.59024,4.02496 c 0.0373,-1.34164 0.22363,-3.13053 0.55905,-5.36662 4.84488,-12.74576 4.32312,-22.211895 -1.56527,-28.398425 -7.37912,9.876093 -7.75179,19.304965 -1.11805,28.286615 -0.493,3.35414 -0.81146,6.7083 -1.00627,10.06244 l -2.5715,2.4597 c 1.29178,-7.21972 -5.42867,-8.68939 -7.93815,-16.09989 -0.63526,8.70577 -7.11345,16.55686 7.37912,21.91374 z"
     id="path17" /><path
     style="fill:#ffffff;stroke-width:0.454689;stroke-linejoin:bevel;stroke-miterlimit:20.9"
     d="m 210.77397,69.205908 c -7.78907,-10.36058 -18.85775,-18.93228 -33.20603,-25.71511 -12.78301,3.20508 -23.03179,-4.77033 -30.74632,-23.926225 18.6714,0.0745 29.44193,6.85736 32.31159,20.348475 l 14.08738,8.16175 -1.56527,-5.70204 c -10.84505,-7.7518 -14.98182,-17.292485 -12.4103,-28.622035 12.44759,8.01268 17.73968,17.665163 15.87626,28.957455 l 3.80138,9.61521 5.59024,4.02496 c -0.0373,-1.34164 -0.22363,-3.13053 -0.55905,-5.36662 -4.84488,-12.74576 -4.32312,-22.211895 1.56527,-28.398425 7.37912,9.876093 7.75179,19.304965 1.11805,28.286615 0.493,3.35414 0.81146,6.7083 1.00627,10.06244 l 2.5715,2.4597 c -1.29178,-7.21972 5.42867,-8.68939 7.93815,-16.09989 0.63526,8.70577 7.11345,16.55686 -7.37912,21.91374 z"
     id="path22" /><g
     id="g2"><path
       style="fill:#ffffff;stroke-width:0.3123;stroke-linejoin:bevel;stroke-miterlimit:20.9"
       d="m 4.4891,55.475897 c 13.5281,15.30207 51.3891,27.70153 59.7303,38.66184 -0.1448,20.199723 4.3961,34.499693 15.2041,40.182233 17.348,9.12111 25.7746,16.94171 23.8922,26.28137 -6.3713,-7.16765 -12.0909,-11.36688 -17.159,-12.59769 1.3032,-1.086 3.8373,-1.0136 7.6021,0.21721 -4.614,-5.48443 -24.6033,-14.12519 -33.449,-23.45773 C 54.1032,118.21496 49.8841,99.784967 49.8841,99.784967 L 35.5488,93.486117 C 19.2618,86.329687 9.7228,72.036777 4.4891,55.475897 Z"
       id="path25" /><path
       style="fill:#ffffff;stroke-width:0.3123;stroke-linejoin:bevel;stroke-miterlimit:20.9"
       d="m 77.9441,141.91727 c -0.4607,5.60584 1.843,11.00688 6.9113,16.20315 -1.8942,-0.17917 -3.7884,-0.71671 -5.6826,-1.61262 -3.8908,-5.47785 -4.3004,-10.34136 -1.2287,-14.59053 z"
       id="path26" /><path
       style="fill:#ffffff;stroke-width:0.3123;stroke-linejoin:bevel;stroke-miterlimit:20.9"
       d="m 73.0294,141.30294 c -7.3336,0.76792 -9.6502,4.55635 -6.9497,11.36526 2.8541,0.38396 5.5035,1.22866 7.948,2.53412 -4.9915,-5.55464 -5.3242,-10.18776 -0.9983,-13.89938 z"
       id="path27" /><path
       style="fill:#ffffff;stroke-width:0.3123;stroke-linejoin:bevel;stroke-miterlimit:20.9"
       d="m 67.0396,137.77049 c -6.2816,0.22126 -8.9926,9.18601 -5.721,13.13146 -2.6365,-0.9215 -5.1195,-1.9454 -7.4488,-3.07168 -1.3439,-8.57514 3.046,-11.9284 13.1698,-10.05978 z"
       id="path28" /><path
       style="fill:#ffffff;stroke-width:0.3123;stroke-linejoin:bevel;stroke-miterlimit:20.9"
       d="m 0.7966,65.032747 c 2.4478,11.21683 7.4829,21.99596 17.7871,28.73575 9.2754,6.06687 23.2403,10.053413 30.5867,16.657553 C 43.8276,100.62837 32.6008,94.883317 23.4664,89.331597 13.184,83.082157 5.2538,73.958607 0.7966,65.032747 Z"
       id="path29" /><path
       style="fill:#ffffff;stroke-width:0.3123;stroke-linejoin:bevel;stroke-miterlimit:20.9"
       d="M 51.5153,117.26866 C 47.5108,109.30657 34.9667,104.79986 23.5261,101.05095 14.7613,98.178837 6.4121,91.221577 0,84.169497 c 4.0188,13.72022 10.7641,25.144553 21.7322,27.414833 9.2708,1.91897 17.6504,-0.47314 29.7831,5.68433 z"
       id="path30" /><path
       style="fill:#ffffff;stroke-width:0.3123;stroke-linejoin:bevel;stroke-miterlimit:20.9"
       d="m 54.6155,123.91684 c -5.7559,-7.85544 -15.0496,-8.81617 -25.3112,-7.73316 -7.379,0.77877 -16.2846,-3.62104 -23.217,-10.58958 5.7973,13.24857 15.5715,22.0008 25.932,20.90662 6.5737,-0.69424 14.4873,-4.03189 22.5962,-2.58388 z"
       id="path31" /><path
       style="fill:#ffffff;stroke-width:0.3123;stroke-linejoin:bevel;stroke-miterlimit:20.9"
       d="m 62.2728,132.0752 c -7.6573,-8.15836 -13.8362,-5.48407 -22.6812,-1.93534 -5.8612,2.35159 -11.9822,3.14739 -20.0368,-3.31436 6.2083,12.36238 16.9301,20.01267 25.0079,15.15083 6.512,-3.91941 5.6374,-10.66134 17.7101,-9.90113 z"
       id="path32" /></g><path
     style="fill:#ffffff;stroke-width:0.264583;stroke-linejoin:bevel;stroke-miterlimit:20.9"
     d="m 86.1572,163.12459 c 8.0317,17.64438 13.9816,34.94178 17.8495,51.89219 -11.3451,-20.70274 -21.2304,-41.63256 -47.6599,-59.98884 9.7633,4.73232 19.7001,7.4312 29.8104,8.09665 z"
     id="path33" /><g
     id="g1"><path
       style="fill:#ffffff;stroke-width:0.3123;stroke-linejoin:bevel;stroke-miterlimit:20.9"
       d="m 246.3004,55.475897 c -13.5282,15.30207 -51.3892,27.70153 -59.7303,38.66184 0.1448,20.199723 -4.3962,34.499693 -15.2041,40.182233 -17.348,9.12111 -25.7746,16.94171 -23.8922,26.28137 6.3713,-7.16765 12.0909,-11.36688 17.1589,-12.59769 -1.3032,-1.086 -3.8372,-1.0136 -7.602,0.21721 4.614,-5.48443 24.6033,-14.12519 33.449,-23.45773 6.2066,-6.54817 10.4257,-24.978163 10.4257,-24.978163 l 14.3352,-6.29885 c 16.2871,-7.15643 25.826,-21.44934 31.0598,-38.01022 z"
       id="path34" /><path
       style="fill:#ffffff;stroke-width:0.3123;stroke-linejoin:bevel;stroke-miterlimit:20.9"
       d="m 172.8454,141.91727 c 0.4607,5.60584 -1.8431,11.00688 -6.9114,16.20315 1.8942,-0.17917 3.7885,-0.71671 5.6827,-1.61262 3.8908,-5.47785 4.3003,-10.34136 1.2287,-14.59053 z"
       id="path35" /><path
       style="fill:#ffffff;stroke-width:0.3123;stroke-linejoin:bevel;stroke-miterlimit:20.9"
       d="m 177.76,141.30294 c 7.3337,0.76792 9.6503,4.55635 6.9498,11.36526 -2.8542,0.38396 -5.5035,1.22866 -7.9481,2.53412 4.9915,-5.55464 5.3243,-10.18776 0.9983,-13.89938 z"
       id="path36" /><path
       style="fill:#ffffff;stroke-width:0.3123;stroke-linejoin:bevel;stroke-miterlimit:20.9"
       d="m 183.7498,137.77049 c 6.2817,0.22126 8.9927,9.18601 5.7211,13.13146 2.6365,-0.9215 5.1195,-1.9454 7.4488,-3.07168 1.3439,-8.57514 -3.0461,-11.9284 -13.1699,-10.05978 z"
       id="path37" /><path
       style="fill:#ffffff;stroke-width:0.3123;stroke-linejoin:bevel;stroke-miterlimit:20.9"
       d="m 249.9928,65.032747 c -2.4477,11.21683 -7.4828,21.99596 -17.787,28.73575 -9.2755,6.06687 -23.2403,10.053413 -30.5868,16.657553 5.3429,-9.79768 16.5697,-15.542733 25.7041,-21.094453 10.2824,-6.24944 18.2126,-15.37299 22.6697,-24.29885 z"
       id="path38" /><path
       style="fill:#ffffff;stroke-width:0.3123;stroke-linejoin:bevel;stroke-miterlimit:20.9"
       d="m 199.2742,117.26866 c 4.0044,-7.96209 16.5486,-12.4688 27.9891,-16.21771 8.7649,-2.872113 17.114,-9.829373 23.5262,-16.881453 -4.0188,13.72022 -10.7641,25.144553 -21.7322,27.414833 -9.2709,1.91897 -17.6505,-0.47314 -29.7831,5.68433 z"
       id="path39" /><path
       style="fill:#ffffff;stroke-width:0.3123;stroke-linejoin:bevel;stroke-miterlimit:20.9"
       d="m 196.174,123.91684 c 5.7558,-7.85544 15.0495,-8.81617 25.3112,-7.73316 7.3789,0.77877 16.2846,-3.62104 23.217,-10.58958 -5.7974,13.24857 -15.5715,22.0008 -25.932,20.90662 -6.5738,-0.69424 -14.4873,-4.03189 -22.5962,-2.58388 z"
       id="path40" /><path
       style="fill:#ffffff;stroke-width:0.3123;stroke-linejoin:bevel;stroke-miterlimit:20.9"
       d="m 188.5166,132.0752 c 7.6574,-8.15836 13.8363,-5.48407 22.6813,-1.93534 5.8612,2.35159 11.9822,3.14739 20.0368,-3.31436 -6.2084,12.36238 -16.9301,20.01267 -25.0079,15.15083 -6.512,-3.91941 -5.6374,-10.66134 -17.7102,-9.90113 z"
       id="path41" /></g><path
     style="fill:#ffffff;stroke-width:0.264583;stroke-linejoin:bevel;stroke-miterlimit:20.9"
     d="m 164.6322,163.12459 c -8.0317,17.64438 -13.9815,34.94178 -17.8494,51.89219 11.3451,-20.70274 21.2304,-41.63256 47.6598,-59.98884 -9.7633,4.73232 -19.7001,7.4312 -29.8104,8.09665 z"
     id="path42" /><path
     id="path43"
     style="fill:#ffffff;stroke-width:0.866862;stroke-linejoin:bevel;stroke-miterlimit:20.9"
     d="m 125.39463,94.098656 -11.08449,0.853321 c 1.27908,99.614523 -1.98906,158.871493 -9.80475,177.771243 8.66819,11.65247 15.63138,26.14707 20.88924,43.48368 5.25786,-17.33661 12.22138,-31.83121 20.88957,-43.48368 -7.81569,-18.89975 -11.08383,-78.15672 -9.80475,-177.771243 z" /><g
     id="g4"><path
       id="path54"
       style="fill:#ffffff;stroke-width:0.866862;stroke-linejoin:bevel;stroke-miterlimit:20.9"
       d="m 83.402528,56.371491 c -9.805081,2.842068 -18.472291,5.682649 -26.003925,8.524717 16.270923,17.762932 38.935938,26.574645 67.996027,26.432551 29.06009,0.142094 51.72543,-8.667925 67.99635,-26.430858 -7.53163,-2.842067 -16.19917,-5.684342 -26.00425,-8.52641 16.27911,7.968785 -3.62821,21.053446 -41.9921,25.684204 C 87.030739,77.424937 67.123414,64.340276 83.402528,56.371491 Z" /><g
       id="g3"><path
         style="fill:#ffffff;stroke-width:0.866862;stroke-linejoin:bevel;stroke-miterlimit:20.9"
         d="m 116.33557,76.833608 15.98654,-7.673591 c 6.98448,-3.352648 4.29756,-12.296201 0.63954,-10.444608 l -17.26562,8.739369 c -4.35163,2.202717 -3.22522,11.233981 0.6379,9.37883 z"
         id="path55" /><path
         style="fill:#ffffff;stroke-width:0.866862;stroke-linejoin:bevel;stroke-miterlimit:20.9"
         d="m 116.33557,61.166702 15.98654,-7.67359 c 6.98448,-3.352648 4.29756,-12.296201 0.63954,-10.444608 l -17.26562,8.739368 c -4.35163,2.202718 -3.22522,11.233982 0.6379,9.37883 z"
         id="path56" /><path
         style="fill:#ffffff;stroke-width:0.866862;stroke-linejoin:bevel;stroke-miterlimit:20.9"
         d="m 116.33557,46.565572 15.98654,-7.673591 c 6.98448,-3.352648 4.29756,-12.296201 0.63954,-10.444608 l -17.26562,8.739369 c -4.35163,2.202718 -3.22522,11.233981 0.6379,9.37883 z"
         id="path57" /><path
         id="path58"
         style="fill:#ffffff;stroke-width:0.866862;stroke-linejoin:bevel;stroke-miterlimit:20.9"
         d="m 114.20071,24.043402 c -2.58044,3.202792 -1.22633,10.6001 2.13257,8.987125 h 0.002 l 15.98785,-7.673093 c 0.34336,-0.164766 2.93953,-1.709724 3.23702,-1.899565 -6.77251,1.06261 -13.89231,1.25783 -21.35907,0.585533 z" /><path
         id="path59"
         style="fill:#ffffff;stroke-width:0.866862;stroke-linejoin:bevel;stroke-miterlimit:20.9"
         d="m 135.4687,72.494806 c -0.3047,0.0018 -0.63201,0.08004 -0.98389,0.24887 h -0.002 l -8.99518,5.76551 12.41862,-1.426115 c 0.1245,-2.367449 -0.7955,-4.598195 -2.43792,-4.588278 z" /></g><path
       id="path60"
       style="fill:#ffffff;stroke-width:0.866862;stroke-linejoin:bevel;stroke-miterlimit:20.9"
       d="M 125.39463,-1.3643191e-6 C 121.57377,6.7574348 118.85867,10.098465 106.39649,10.023103 c 0,8.324205 2.49165,11.154088 18.99814,11.154088 16.50649,0 18.99814,-2.829883 18.99814,-11.154088 C 131.93059,10.098459 129.21549,6.7574348 125.39463,-1.3643191e-6 Z" /></g><path
     id="path23"
     style="fill:#ffffff;stroke-width:0.0662216;stroke-linejoin:bevel;stroke-miterlimit:20.9"
     d="m 171.80093,200.16282 c -4.46335,-0.6906 -9.09805,-0.0599 -10.33191,2.65712 l -6.56512,14.45466 c -1.74759,3.84711 0.3853,9.62417 4.49513,16.64558 l -13.11483,14.16996 3.61445,15.43239 16.70471,-17.19038 12.33736,20.23008 7.02249,-14.40257 -9.68353,-16.68186 c 5.27948,-5.36139 8.97224,-10.5728 7.96214,-15.31509 l -3.1384,-14.72893 c -0.54747,-2.56837 -4.83947,-4.5803 -9.30249,-5.27096 z m -1.09036,10.01728 c 2.13519,0.24397 4.27823,0.82873 6.42816,1.75421 -1.75414,4.39662 -4.34933,8.04805 -7.78718,10.95433 -2.81536,-3.89878 -4.49022,-8.03809 -5.02524,-12.41807 2.12011,-0.43763 4.24842,-0.53444 6.38426,-0.29047 z" /><path
     id="path53"
     style="fill:#ffffff;stroke-width:0.0662216;stroke-linejoin:bevel;stroke-miterlimit:20.9"
     d="m 78.988653,200.16282 c 4.463348,-0.6906 9.098048,-0.0599 10.331915,2.65712 l 6.565115,14.45466 c 1.747596,3.84711 -0.385297,9.62417 -4.495128,16.64558 l 13.114835,14.16996 -3.61445,15.43239 -16.704713,-17.19038 -12.337359,20.23008 -7.022491,-14.40257 9.683529,-16.68186 c -5.279483,-5.36139 -8.972237,-10.5728 -7.962144,-15.31509 l 3.138399,-14.72893 c 0.547475,-2.56837 4.839471,-4.5803 9.302492,-5.27096 z m 1.090363,10.01728 c -2.135186,0.24397 -4.278235,0.82873 -6.428165,1.75421 1.754149,4.39662 4.349332,8.04805 7.787188,10.95433 2.815353,-3.89878 4.490214,-8.03809 5.025239,-12.41807 -2.120115,-0.43763 -4.248421,-0.53444 -6.384262,-0.29047 z" /><path
     style="fill:#ffffff;stroke-width:0.454689;stroke-linejoin:bevel;stroke-miterlimit:20.9"
     d="m -730.32242,21.402638 c 7.78907,-10.36058 18.85775,-18.9322804 33.20603,-25.7151104 12.78301,3.20508 23.03179,-4.77033 30.74632,-23.9262246 -18.6714,0.0745 -29.44193,6.85736 -32.31159,20.3484746 l -14.08738,8.16175005 1.56527,-5.70204005 c 10.84505,-7.7517996 14.98182,-17.2924846 12.4103,-28.6220346 -12.44759,8.01268 -17.73968,17.665163 -15.87626,28.9574546 l -3.80138,9.61521 -5.59024,4.02496 c 0.0373,-1.34164 0.22363,-3.13053 0.55905,-5.36662 4.84488,-12.74576 4.32312,-22.2118946 -1.56527,-28.3984246 -7.37912,9.876093 -7.75179,19.3049646 -1.11805,28.2866146 -0.493,3.35414 -0.81146,6.7083 -1.00627,10.0624404 l -2.5715,2.4597 c 1.29178,-7.2197204 -5.42867,-8.6893904 -7.93815,-16.09989035 -0.63526,8.70576995 -7.11345,16.55686035 7.37912,21.91374035 z"
     id="path4" /><path
     style="fill:#ffffff;stroke-width:0.454689;stroke-linejoin:bevel;stroke-miterlimit:20.9"
     d="m -185.75808,69.205908 c -7.78907,-10.36058 -18.85775,-18.93228 -33.20603,-25.71511 -12.78301,3.20508 -23.03179,-4.77033 -30.74632,-23.926225 18.6714,0.0745 29.44193,6.85736 32.31159,20.348475 l 14.08738,8.16175 -1.56527,-5.70204 c -10.84505,-7.7518 -14.98182,-17.292485 -12.4103,-28.622035 12.44759,8.01268 17.73968,17.665163 15.87626,28.957455 l 3.80138,9.61521 5.59024,4.02496 c -0.0373,-1.34164 -0.22363,-3.13053 -0.55905,-5.36662 -4.84488,-12.74576 -4.32312,-22.211895 1.56527,-28.398425 7.37912,9.876093 7.75179,19.304965 1.11805,28.286615 0.493,3.35414 0.81146,6.7083 1.00627,10.06244 l 2.5715,2.4597 c -1.29178,-7.21972 5.42867,-8.68939 7.93815,-16.09989 0.63526,8.70577 7.11345,16.55686 -7.37912,21.91374 z"
     id="path5" /><g
     id="g13"
     transform="translate(-785.22749)"><path
       style="fill:#ffffff;stroke-width:0.3123;stroke-linejoin:bevel;stroke-miterlimit:20.9"
       d="m 4.4891,55.475897 c 13.5281,15.30207 51.3891,27.70153 59.7303,38.66184 -0.1448,20.199723 4.3961,34.499693 15.2041,40.182233 17.348,9.12111 25.7746,16.94171 23.8922,26.28137 -6.3713,-7.16765 -12.0909,-11.36688 -17.159,-12.59769 1.3032,-1.086 3.8373,-1.0136 7.6021,0.21721 -4.614,-5.48443 -24.6033,-14.12519 -33.449,-23.45773 C 54.1032,118.21496 49.8841,99.784967 49.8841,99.784967 L 35.5488,93.486117 C 19.2618,86.329687 9.7228,72.036777 4.4891,55.475897 Z"
       id="path6" /><path
       style="fill:#ffffff;stroke-width:0.3123;stroke-linejoin:bevel;stroke-miterlimit:20.9"
       d="m 77.9441,141.91727 c -0.4607,5.60584 1.843,11.00688 6.9113,16.20315 -1.8942,-0.17917 -3.7884,-0.71671 -5.6826,-1.61262 -3.8908,-5.47785 -4.3004,-10.34136 -1.2287,-14.59053 z"
       id="path7" /><path
       style="fill:#ffffff;stroke-width:0.3123;stroke-linejoin:bevel;stroke-miterlimit:20.9"
       d="m 73.0294,141.30294 c -7.3336,0.76792 -9.6502,4.55635 -6.9497,11.36526 2.8541,0.38396 5.5035,1.22866 7.948,2.53412 -4.9915,-5.55464 -5.3242,-10.18776 -0.9983,-13.89938 z"
       id="path8" /><path
       style="fill:#ffffff;stroke-width:0.3123;stroke-linejoin:bevel;stroke-miterlimit:20.9"
       d="m 67.0396,137.77049 c -6.2816,0.22126 -8.9926,9.18601 -5.721,13.13146 -2.6365,-0.9215 -5.1195,-1.9454 -7.4488,-3.07168 -1.3439,-8.57514 3.046,-11.9284 13.1698,-10.05978 z"
       id="path9" /><path
       style="fill:#ffffff;stroke-width:0.3123;stroke-linejoin:bevel;stroke-miterlimit:20.9"
       d="m 0.7966,65.032747 c 2.4478,11.21683 7.4829,21.99596 17.7871,28.73575 9.2754,6.06687 23.2403,10.053413 30.5867,16.657553 C 43.8276,100.62837 32.6008,94.883317 23.4664,89.331597 13.184,83.082157 5.2538,73.958607 0.7966,65.032747 Z"
       id="path10" /><path
       style="fill:#ffffff;stroke-width:0.3123;stroke-linejoin:bevel;stroke-miterlimit:20.9"
       d="M 51.5153,117.26866 C 47.5108,109.30657 34.9667,104.79986 23.5261,101.05095 14.7613,98.178837 6.4121,91.221577 0,84.169497 c 4.0188,13.72022 10.7641,25.144553 21.7322,27.414833 9.2708,1.91897 17.6504,-0.47314 29.7831,5.68433 z"
       id="path11" /><path
       style="fill:#ffffff;stroke-width:0.3123;stroke-linejoin:bevel;stroke-miterlimit:20.9"
       d="m 54.6155,123.91684 c -5.7559,-7.85544 -15.0496,-8.81617 -25.3112,-7.73316 -7.379,0.77877 -16.2846,-3.62104 -23.217,-10.58958 5.7973,13.24857 15.5715,22.0008 25.932,20.90662 6.5737,-0.69424 14.4873,-4.03189 22.5962,-2.58388 z"
       id="path12" /><path
       style="fill:#ffffff;stroke-width:0.3123;stroke-linejoin:bevel;stroke-miterlimit:20.9"
       d="m 62.2728,132.0752 c -7.6573,-8.15836 -13.8362,-5.48407 -22.6812,-1.93534 -5.8612,2.35159 -11.9822,3.14739 -20.0368,-3.31436 6.2083,12.36238 16.9301,20.01267 25.0079,15.15083 6.512,-3.91941 5.6374,-10.66134 17.7101,-9.90113 z"
       id="path13" /></g><path
     style="fill:#ffffff;stroke-width:0.264583;stroke-linejoin:bevel;stroke-miterlimit:20.9"
     d="m -585.43957,163.12459 c 8.0317,17.64438 13.9816,34.94178 17.8495,51.89219 -11.3451,-20.70274 -21.2304,-41.63256 -47.6599,-59.98884 9.7633,4.73232 19.7001,7.4312 29.8104,8.09665 z"
     id="path14" /><g
     id="g44"
     transform="translate(-396.53205)"><path
       style="fill:#ffffff;stroke-width:0.3123;stroke-linejoin:bevel;stroke-miterlimit:20.9"
       d="m 246.3004,55.475897 c -13.5282,15.30207 -51.3892,27.70153 -59.7303,38.66184 0.1448,20.199723 -4.3962,34.499693 -15.2041,40.182233 -17.348,9.12111 -25.7746,16.94171 -23.8922,26.28137 6.3713,-7.16765 12.0909,-11.36688 17.1589,-12.59769 -1.3032,-1.086 -3.8372,-1.0136 -7.602,0.21721 4.614,-5.48443 24.6033,-14.12519 33.449,-23.45773 6.2066,-6.54817 10.4257,-24.978163 10.4257,-24.978163 l 14.3352,-6.29885 c 16.2871,-7.15643 25.826,-21.44934 31.0598,-38.01022 z"
       id="path15" /><path
       style="fill:#ffffff;stroke-width:0.3123;stroke-linejoin:bevel;stroke-miterlimit:20.9"
       d="m 172.8454,141.91727 c 0.4607,5.60584 -1.8431,11.00688 -6.9114,16.20315 1.8942,-0.17917 3.7885,-0.71671 5.6827,-1.61262 3.8908,-5.47785 4.3003,-10.34136 1.2287,-14.59053 z"
       id="path16" /><path
       style="fill:#ffffff;stroke-width:0.3123;stroke-linejoin:bevel;stroke-miterlimit:20.9"
       d="m 177.76,141.30294 c 7.3337,0.76792 9.6503,4.55635 6.9498,11.36526 -2.8542,0.38396 -5.5035,1.22866 -7.9481,2.53412 4.9915,-5.55464 5.3243,-10.18776 0.9983,-13.89938 z"
       id="path18" /><path
       style="fill:#ffffff;stroke-width:0.3123;stroke-linejoin:bevel;stroke-miterlimit:20.9"
       d="m 183.7498,137.77049 c 6.2817,0.22126 8.9927,9.18601 5.7211,13.13146 2.6365,-0.9215 5.1195,-1.9454 7.4488,-3.07168 1.3439,-8.57514 -3.0461,-11.9284 -13.1699,-10.05978 z"
       id="path19" /><path
       style="fill:#ffffff;stroke-width:0.3123;stroke-linejoin:bevel;stroke-miterlimit:20.9"
       d="m 249.9928,65.032747 c -2.4477,11.21683 -7.4828,21.99596 -17.787,28.73575 -9.2755,6.06687 -23.2403,10.053413 -30.5868,16.657553 5.3429,-9.79768 16.5697,-15.542733 25.7041,-21.094453 10.2824,-6.24944 18.2126,-15.37299 22.6697,-24.29885 z"
       id="path20" /><path
       style="fill:#ffffff;stroke-width:0.3123;stroke-linejoin:bevel;stroke-miterlimit:20.9"
       d="m 199.2742,117.26866 c 4.0044,-7.96209 16.5486,-12.4688 27.9891,-16.21771 8.7649,-2.872113 17.114,-9.829373 23.5262,-16.881453 -4.0188,13.72022 -10.7641,25.144553 -21.7322,27.414833 -9.2709,1.91897 -17.6505,-0.47314 -29.7831,5.68433 z"
       id="path21" /><path
       style="fill:#ffffff;stroke-width:0.3123;stroke-linejoin:bevel;stroke-miterlimit:20.9"
       d="m 196.174,123.91684 c 5.7558,-7.85544 15.0495,-8.81617 25.3112,-7.73316 7.3789,0.77877 16.2846,-3.62104 23.217,-10.58958 -5.7974,13.24857 -15.5715,22.0008 -25.932,20.90662 -6.5738,-0.69424 -14.4873,-4.03189 -22.5962,-2.58388 z"
       id="path24" /><path
       style="fill:#ffffff;stroke-width:0.3123;stroke-linejoin:bevel;stroke-miterlimit:20.9"
       d="m 188.5166,132.0752 c 7.6574,-8.15836 13.8363,-5.48407 22.6813,-1.93534 5.8612,2.35159 11.9822,3.14739 20.0368,-3.31436 -6.2084,12.36238 -16.9301,20.01267 -25.0079,15.15083 -6.512,-3.91941 -5.6374,-10.66134 -17.7102,-9.90113 z"
       id="path44" /></g><path
     style="fill:#ffffff;stroke-width:0.264583;stroke-linejoin:bevel;stroke-miterlimit:20.9"
     d="m -231.89985,163.12459 c -8.0317,17.64438 -13.9815,34.94178 -17.8494,51.89219 11.3451,-20.70274 21.2304,-41.63256 47.6598,-59.98884 -9.7633,4.73232 -19.7001,7.4312 -29.8104,8.09665 z"
     id="path45" /><path
     id="path46"
     style="fill:#ffffff;stroke-width:0.866862;stroke-linejoin:bevel;stroke-miterlimit:20.9"
     d="m -468.61978,94.098656 -11.08449,0.853321 c 1.27908,99.614523 -1.98906,158.871493 -9.80475,177.771243 8.66819,11.65247 15.63138,26.14707 20.88924,43.48368 5.25786,-17.33661 12.22138,-31.83121 20.88957,-43.48368 -7.81569,-18.89975 -11.08383,-78.15672 -9.80475,-177.771243 z" /><g
     id="g61"
     transform="translate(-718.61638)"><path
       id="path47"
       style="fill:#ffffff;stroke-width:0.866862;stroke-linejoin:bevel;stroke-miterlimit:20.9"
       d="m 83.402528,56.371491 c -9.805081,2.842068 -18.472291,5.682649 -26.003925,8.524717 16.270923,17.762932 38.935938,26.574645 67.996027,26.432551 29.06009,0.142094 51.72543,-8.667925 67.99635,-26.430858 -7.53163,-2.842067 -16.19917,-5.684342 -26.00425,-8.52641 16.27911,7.968785 -3.62821,21.053446 -41.9921,25.684204 C 87.030739,77.424937 67.123414,64.340276 83.402528,56.371491 Z" /><g
       id="g52"><path
         style="fill:#ffffff;stroke-width:0.866862;stroke-linejoin:bevel;stroke-miterlimit:20.9"
         d="m 116.33557,76.833608 15.98654,-7.673591 c 6.98448,-3.352648 4.29756,-12.296201 0.63954,-10.444608 l -17.26562,8.739369 c -4.35163,2.202717 -3.22522,11.233981 0.6379,9.37883 z"
         id="path48" /><path
         style="fill:#ffffff;stroke-width:0.866862;stroke-linejoin:bevel;stroke-miterlimit:20.9"
         d="m 116.33557,61.166702 15.98654,-7.67359 c 6.98448,-3.352648 4.29756,-12.296201 0.63954,-10.444608 l -17.26562,8.739368 c -4.35163,2.202718 -3.22522,11.233982 0.6379,9.37883 z"
         id="path49" /><path
         style="fill:#ffffff;stroke-width:0.866862;stroke-linejoin:bevel;stroke-miterlimit:20.9"
         d="m 116.33557,46.565572 15.98654,-7.673591 c 6.98448,-3.352648 4.29756,-12.296201 0.63954,-10.444608 l -17.26562,8.739369 c -4.35163,2.202718 -3.22522,11.233981 0.6379,9.37883 z"
         id="path50" /><path
         id="path51"
         style="fill:#ffffff;stroke-width:0.866862;stroke-linejoin:bevel;stroke-miterlimit:20.9"
         d="m 114.20071,24.043402 c -2.58044,3.202792 -1.22633,10.6001 2.13257,8.987125 h 0.002 l 15.98785,-7.673093 c 0.34336,-0.164766 2.93953,-1.709724 3.23702,-1.899565 -6.77251,1.06261 -13.89231,1.25783 -21.35907,0.585533 z" /><path
         id="path52"
         style="fill:#ffffff;stroke-width:0.866862;stroke-linejoin:bevel;stroke-miterlimit:20.9"
         d="m 135.4687,72.494806 c -0.3047,0.0018 -0.63201,0.08004 -0.98389,0.24887 h -0.002 l -8.99518,5.76551 12.41862,-1.426115 c 0.1245,-2.367449 -0.7955,-4.598195 -2.43792,-4.588278 z" /></g><path
       id="path61"
       style="fill:#ffffff;stroke-width:0.866862;stroke-linejoin:bevel;stroke-miterlimit:20.9"
       d="M 125.39463,-1.3643191e-6 C 121.57377,6.7574348 118.85867,10.098465 106.39649,10.023103 c 0,8.324205 2.49165,11.154088 18.99814,11.154088 16.50649,0 18.99814,-2.829883 18.99814,-11.154088 C 131.93059,10.098459 129.21549,6.7574348 125.39463,-1.3643191e-6 Z" /></g><path
     id="path62"
     style="fill:#ffffff;stroke-width:0.0662216;stroke-linejoin:bevel;stroke-miterlimit:20.9"
     d="m -224.73112,200.16282 c -4.46335,-0.6906 -9.09805,-0.0599 -10.33191,2.65712 l -6.56512,14.45466 c -1.74759,3.84711 0.3853,9.62417 4.49513,16.64558 l -13.11483,14.16996 3.61445,15.43239 16.70471,-17.19038 12.33736,20.23008 7.02249,-14.40257 -9.68353,-16.68186 c 5.27948,-5.36139 8.97224,-10.5728 7.96214,-15.31509 l -3.1384,-14.72893 c -0.54747,-2.56837 -4.83947,-4.5803 -9.30249,-5.27096 z m -1.09036,10.01728 c 2.13519,0.24397 4.27823,0.82873 6.42816,1.75421 -1.75414,4.39662 -4.34933,8.04805 -7.78718,10.95433 -2.81536,-3.89878 -4.49022,-8.03809 -5.02524,-12.41807 2.12011,-0.43763 4.24842,-0.53444 6.38426,-0.29047 z" /><path
     id="path63"
     style="fill:#ffffff;stroke-width:0.0662216;stroke-linejoin:bevel;stroke-miterlimit:20.9"
     d="m -657.6519,229.94191 c 4.46335,-0.6906 9.09805,-0.0599 10.33191,2.65712 l 6.56512,14.45466 c 1.74759,3.84711 -0.3853,9.62417 -4.49513,16.64558 l 13.11483,14.16996 -3.61445,15.43239 -16.70471,-17.19038 -12.33736,20.23008 -7.02249,-14.40257 9.68353,-16.68186 c -5.27948,-5.36139 -8.97224,-10.5728 -7.96214,-15.31509 l 3.1384,-14.72893 c 0.54747,-2.56837 4.83947,-4.5803 9.30249,-5.27096 z m 1.09036,10.01728 c -2.13519,0.24397 -4.27823,0.82873 -6.42816,1.75421 1.75414,4.39662 4.34933,8.04805 7.78718,10.95433 2.81536,-3.89878 4.49022,-8.03809 5.02524,-12.41807 -2.12011,-0.43763 -4.24842,-0.53444 -6.38426,-0.29047 z" /></svg>
